<?xml version="1.0" standalone="no"?><!DOCTYPE svg PUBLIC "-//W3C//DTD SVG 1.1//EN" "http://www.w3.org/Graphics/SVG/1.1/DTD/svg11.dtd"><svg t="1541852017482" class="icon" style="" viewBox="0 0 1024 1024" version="1.1" xmlns="http://www.w3.org/2000/svg" p-id="1612" xmlns:xlink="http://www.w3.org/1999/xlink" width="32" height="32"><defs><style type="text/css"></style></defs><path d="M864.2 846.2c-50.8-99.7-136-172.1-235.5-204.4 22.7-11.9 43.7-27.3 62.3-45.9 48.4-48.4 75-112.7 75-181s-26.6-132.7-75-181c-48.4-48.4-112.7-75-181-75-68.4 0-132.7 26.6-181 75-48.4 48.4-75 112.7-75 181s26.6 132.7 75 181c18.7 18.7 39.7 34.1 62.4 46-98.4 32.1-183 103.3-233.9 201.5-6.1 11.8-1.5 26.3 10.2 32.4 11.8 6.1 26.3 1.5 32.4-10.2 30.1-58 74.3-106.7 127.8-140.9 54.8-35 117.9-53.6 182.3-53.6 130.2 0 249.5 75.5 311.3 197 4.2 8.3 12.7 13.1 21.4 13.1 3.7 0 7.4-0.8 10.9-2.6 11.7-6.1 16.4-20.6 10.4-32.4zM302 414.9c0-114.7 93.3-208 208-208s208 93.3 208 208-93.3 208-208 208-208-93.3-208-208z" fill="#343434" p-id="1613"></path><path d="M954 1009H70c-30.3 0-55-24.7-55-55V70c0-30.3 24.7-55 55-55h884c30.3 0 55 24.7 55 55v884c0 30.3-24.7 55-55 55zM70 63c-3.8 0-7 3.2-7 7v884c0 3.8 3.2 7 7 7h884c3.8 0 7-3.2 7-7V70c0-3.8-3.2-7-7-7H70z" fill="#343434" p-id="1614"></path></svg>