<?xml version="1.0" encoding="UTF-8" standalone="no"?>
<svg
   xmlns:dc="http://purl.org/dc/elements/1.1/"
   xmlns:cc="http://creativecommons.org/ns#"
   xmlns:rdf="http://www.w3.org/1999/02/22-rdf-syntax-ns#"
   xmlns:svg="http://www.w3.org/2000/svg"
   xmlns="http://www.w3.org/2000/svg"
   viewBox="0 0 2155.0266 1215.6667"
   height="1215.6667"
   width="2155.0266"
   xml:space="preserve"
   id="svg2"
   version="1.1"><metadata
     id="metadata8"><rdf:RDF><cc:Work
         rdf:about=""><dc:format>image/svg+xml</dc:format><dc:type
           rdf:resource="http://purl.org/dc/dcmitype/StillImage" /></cc:Work></rdf:RDF></metadata><defs
     id="defs6" /><g
     transform="matrix(1.3333333,0,0,-1.3333333,0,1215.6667)"
     id="g10"><g
       transform="scale(0.1)"
       id="g12"><path
         id="path14"
         style="fill:black;fill-opacity:1;fill-rule:evenodd;stroke:none"
         d="m 5725.95,4034.66 c -49.49,53.57 -99.63,106.99 -150.21,159.94 -195.43,102.07 -358.44,259.81 -458.88,451.41 -2.19,2 -4.41,4.05 -6.61,6.06 -73.19,66.67 -135.26,121.22 -198.04,173.69" /><path
         id="path16"
         style="fill:black;fill-opacity:1;fill-rule:evenodd;stroke:none"
         d="m 6284.31,9117.52 v 0 0 z" /><path
         id="path18"
         style="fill:black;fill-opacity:1;fill-rule:nonzero;stroke:none"
         d="m 1830.7,4997.86 c 0,0 -526.45,-546.08 -517.2,-934 9.22,-387.91 258.55,-618.81 258.55,-618.81 0,0 -581.835,207.87 -581.835,516.26 0,276.38 46.175,518.94 314.035,726.37 267.86,207.43 526.45,310.18 526.45,310.18" /><path
         id="path20"
         style="fill:black;fill-opacity:1;fill-rule:nonzero;stroke:none"
         d="m 9472.25,4716.19 c 618.65,281.67 1505.35,857.18 2059.45,1916.36 193.1,369.05 -275.5,743.72 -275.5,743.72 0,0 106.8,-170.45 106.8,-506.87 0,0 -50.8,-291.44 -164.4,-478.03 C 10569.1,5356.93 9472.25,4716.19 9472.25,4716.19" /><path
         id="path22"
         style="fill:black;fill-opacity:1;fill-rule:nonzero;stroke:none"
         d="m 8632.3,4054.62 c 0,0 901.34,-748.1 1252.3,-1089.86 351,-341.76 988.6,-704.86 1283.8,-858.94 498.5,-260.18 1006.8,-193.97 1006.8,-193.97 0,0 -99.5,-7.19 -583.3,149.81 0,0 -269.4,83.43 -580.5,256.58 -389.9,217.03 -866,608.4 -1025.2,757.36 -286.31,267.86 -976.72,932.85 -1019.42,942.08 -42.72,9.23 -334.48,36.94 -334.48,36.94" /><path
         id="path24"
         style="fill:black;fill-opacity:1;fill-rule:nonzero;stroke:none"
         d="m 10269.4,5181.43 c 0,0 109.3,77.61 255.9,64.66 209,-18.48 345.9,-282.96 384.5,-389.55 38.6,-106.56 27.7,-367.81 -110.8,-534.06 -138.6,-166.25 -395.2,-361.17 -395.2,-361.17 l 195.4,-128.36 c 0,0 328.6,478.13 403,694.79 64.6,188.45 47.3,341.12 0,470.12 -46.9,127.78 -335,509.54 -335,509.54 l -397.8,-325.97" /><path
         id="path26"
         style="fill:black;fill-opacity:1;fill-rule:nonzero;stroke:none"
         d="m 15149.2,5126.02 c 0,0 165.6,563.4 295.2,572.64 129.7,9.24 232.2,0 232.2,0 l 146.8,212.42 c 0,0 -147.7,230.9 -337.1,83.13 -189.3,-147.78 -205.9,-370.75 -283.6,-544.93 -77.7,-174.17 -99.7,-295.55 -99.7,-295.55 l 46.2,-27.71" /><path
         id="path28"
         style="fill:black;fill-opacity:1;fill-rule:nonzero;stroke:none"
         d="m 8799.53,658.801 c 0,0 -42.06,-213.821 -78.68,458.749 -15.59,286.23 -78.1,2394.59 -88.55,2638.96 l 334.48,-311.46 -111.5,-32.38 c 0,-594.72 -9.08,-188.28 1.62,-432.66 L 8799.53,658.801" /><path
         id="path30"
         style="fill:black;fill-opacity:1;fill-rule:nonzero;stroke:none"
         d="m 11340.8,4624.19 c 506.8,878.44 695.8,1549.05 695.8,1756.88 l 172.4,-350.54 c -135.1,-441.54 -533.2,-913.08 -724.4,-1406.34" /><path
         id="path32"
         style="fill:black;fill-opacity:1;fill-rule:nonzero;stroke:none"
         d="m 11924,4624.19 c 740.7,1236.09 1018.3,2121.63 1029.7,2472.18 l 206,-331.07 c -343.9,-865.62 -968.5,-1890.02 -1066.4,-2141.11" /><path
         id="path34"
         style="fill:black;fill-opacity:1;fill-rule:nonzero;stroke:none"
         d="m 12526.9,4571.78 c 1302.8,2367.59 1401,2918.03 1412.4,3229.64 l 207.6,-425.15 c -53.7,-560.04 -236,-670.22 -1450.7,-2788.77" /><path
         id="path36"
         style="fill:black;fill-opacity:1;fill-rule:nonzero;stroke:none"
         d="m 11927.6,3663.64 -123.3,70.34 -610.9,927.14 291.2,-36.93 443,-960.55" /><path
         id="path38"
         style="fill:black;fill-opacity:1;fill-rule:nonzero;stroke:none"
         d="m 12769.7,3234.95 -183.8,97.96 -738.3,1336.3 245.7,-45.02 676.4,-1389.24" /><path
         id="path40"
         style="fill:black;fill-opacity:1;fill-rule:nonzero;stroke:none"
         d="m 13809.9,2755.72 c 135.2,-137.65 -468,202.5 -468,202.5 l -881.2,1678.02 235.5,-59.22 c 0,0 978.6,-1683.66 1113.7,-1821.3" /><path
         id="path42"
         style="fill:black;fill-opacity:1;fill-rule:nonzero;stroke:none"
         d="m 644.492,6159.85 c 0,0 298.434,-35.05 547.128,5.37 248.74,40.4 405.06,228.97 405.06,228.97 0,0 126.46,488.37 538.62,623.07 412.16,134.69 902.47,-215.51 902.47,-215.51 l 196.47,6.72 c 0,0 -132.52,555.66 -743.61,562.37 -611.14,6.74 -1043.16,-942.96 -1043.16,-942.96 0,0 -14.19,-60.62 -220.3,-121.24 -206.07,-60.62 -667.947,-107.75 -667.947,-107.75" /><path
         id="path44"
         style="fill:black;fill-opacity:1;fill-rule:nonzero;stroke:none"
         d="m 3314.57,4821.08 c 0,0 119.55,-34.25 201.51,-111.62 81.98,-77.37 713.82,-649.21 990.3,-690.32 276.54,-41.1 461.75,-6.94 461.75,-6.94 0,0 -191.15,-428.2 -541.91,-410.62 -350.73,17.6 -521.85,309.59 -629.72,508.28 -107.84,198.68 -481.93,711.22 -481.93,711.22" /><path
         id="path46"
         style="fill:black;fill-opacity:1;fill-rule:nonzero;stroke:none"
         d="m 2975.99,5403.11 c 0,0 628.04,1655.53 2475.28,1592.88 1115.36,-63.57 1548.94,-446.23 1810.28,-649.74 147.32,-114.72 691.43,-625.23 691.43,-625.23 0,0 -976.45,1463.15 -2598.36,1494.87 -1362.67,26.67 -1926.05,-689.02 -2378.63,-1260.95 -101.6,-230.76 -106.83,-268.8 -73.9,-366.86 73.9,-184.97 73.9,-184.97 73.9,-184.97" /><path
         id="path48"
         style="fill:black;fill-opacity:1;fill-rule:nonzero;stroke:none"
         d="m 9810.98,4111.53 c 0,0 13.7,-6.22 37.83,-17.34 145.15,-66.95 841.49,-530.51 1058.69,-668.16 236.7,-149.96 584.2,-446.57 1110.7,-821.46 341.1,-242.96 653.8,-424.95 1015.9,-542.91 0,0 509.4,-139.85 738.9,-57.47 360.2,129.33 506.1,378.7 506.1,378.7 v 138.57 c 0,0 -150.8,-259.41 -641.3,-258.65 -300.9,0.51 -725.2,103.61 -1032.4,267.86 -721.2,385.58 -721.2,446.92 -1410.3,881.85 -178,112.36 -1190.4,702.73 -1227.37,699.01" /><path
         id="path50"
         style="fill:black;fill-opacity:1;fill-rule:nonzero;stroke:none"
         d="m 13939.3,6185.23 c 0,0 613.9,-306.12 827.8,-952.58 111.7,-337.59 89.3,-553.22 58.6,-830.14 -55.5,-498.74 -336.6,-1262.31 -336.6,-1262.31 l 59.7,18.23 c 0,0 702.1,1254.33 651.2,1772.6 -50.8,518.25 -270.6,642.7 -476.8,851.77 -206.3,209.08 -645.4,402.43 -645.4,402.43 h -138.5" /><path
         id="path52"
         style="fill:black;fill-opacity:1;fill-rule:nonzero;stroke:none"
         d="m 14724.3,7213.38 h -110.8 c 0,0 520.5,-494.47 830.9,-1000.92 108.4,-176.76 155.5,-327.05 208.4,-453.75 521.6,-1248.75 -396.1,-2914.03 -644.6,-3381.19 C 13995.1,472.891 14280.1,118.512 14298.5,90.7813 14317,63.082 14389.4,0 14389.4,0 c 0,0 -214.6,498.73 265.7,1440.82 480.3,942.07 1602.8,2721.56 1501.2,3639.02 -99,893.15 -480.6,1195.24 -674.6,1442.73 -194,247.48 -757.4,690.81 -757.4,690.81" /><path
         id="path54"
         style="fill:black;fill-opacity:1;fill-rule:nonzero;stroke:none"
         d="m 7751.06,2965.35 c -39.39,-175.94 -73.9,-298.81 -223.31,-447.43 15.56,-9.42 31.1,-18.59 46.62,-27.45 209.51,173.37 350.95,508.96 423.71,1007.28 l 16.67,152.08 -142.63,55.42 c -6.23,-4.47 -12.34,-8.85 -18.5,-13.24 -30.82,-488.39 -40.82,-450.76 -102.56,-726.66" /><path
         id="path56"
         style="fill:black;fill-opacity:1;fill-rule:nonzero;stroke:none"
         d="m 7307.72,3371.16 c 130.71,33.99 311.19,152.68 545.9,320.85 0.43,6.68 0.85,13.04 1.27,19.93 l -63.88,24.83 63.88,-24.83 v 0 l 17.23,-6.69 c 143.58,103.16 338.38,255.53 522.76,386.54 23.99,17.03 48.14,34.09 72.4,51.18 l -89.66,-26.28 -153.06,-95.94 -1503.63,-800.71 c 5.62,-6.12 11.24,-12.19 16.95,-18.36 145.59,46.69 383.77,121.09 569.84,169.48" /><path
         id="path58"
         style="fill:black;fill-opacity:1;fill-rule:nonzero;stroke:none"
         d="m 6919.82,2490.47 c 103.6,-130.38 591.11,-375.4 822,-412.39 230.91,-36.9 637.31,55.44 637.31,55.44 0,0 -526.47,74.14 -1013.53,429.11 -303.08,220.91 -501.22,482.23 -857.49,846.41 -184.73,188.82 -721.64,682.65 -1069.3,1026.5 -190.74,188.65 -938.54,709.22 -938.54,709.22 l -258.92,89.08 c 492.59,-367.56 612.53,-452.49 868.9,-686.03 889.13,-809.94 1809.57,-2057.34 1809.57,-2057.34" /><path
         id="path60"
         style="fill:black;fill-opacity:1;fill-rule:nonzero;stroke:none"
         d="m 1945.23,5982.76 -289.83,141 c 0,0 224.91,-175.72 344.98,-443.58 120.06,-267.85 559.98,-1544.34 596.92,-1718.87 36.96,-174.53 190.9,-664.04 563.4,-1169.87 124.87,-169.53 581.91,-558.57 1246.9,-568.07 664.99,-9.51 1839.78,724.29 1839.78,724.29 0,0 -557.43,-275.84 -1276.38,-365.26 -749.25,-93.2 -1456.11,303.57 -1702.51,576.03 -384.47,425.16 -625.21,1207.4 -855.89,1839.43 -210.06,575.42 -467.37,984.9 -467.37,984.9" /><path
         id="path62"
         style="fill:black;fill-opacity:1;fill-rule:nonzero;stroke:none"
         d="m 9213.04,4896.34 v -418.88 h -723.22 v 454.1 h 627.8 v 90.81 h -627.8 v 423.85 h 723.22 v -379.3 m -920,-44.55 h -661.36 v -90.81 h 661.36 v -454.1 h -881.3 v 968.76 h 881.3 z m 1268.15,454.12 -242.2,211.91 -121.09,-151.36 H 7442.02 c 0,0 -157.3,68.37 -268.22,169.98 -110.95,101.59 -367.49,50.63 -367.49,50.63 0,0 454.66,-340.61 462.2,-615.21 5.27,-191.83 -41.7,-504.21 -51.63,-756.34 l 194.86,0.54 v 0 h 1801.3 v -151.39 c 0,0 298.66,127.99 211.91,90.82 -86.72,-37.16 -49.69,934.93 -15.16,1044.46 34.57,109.54 151.4,105.96 151.4,105.96" /><path
         id="path64"
         style="fill:black;fill-opacity:1;fill-rule:nonzero;stroke:none"
         d="m 6120.79,6627.43 54.71,52.28 80.19,68.18 c 46.96,55.46 93.45,112.29 138.77,170.92 -168.53,39.11 -360.88,69.74 -581.68,87.47 -88.27,-95.46 -176.71,-193.5 -260.79,-295.71 -290.75,-353.42 -555.81,-761.73 -526.74,-1351.26 6.72,-136.39 30.28,-269.02 68.11,-394.95 60.11,-43.56 123.23,-89.79 185.56,-136.17 -47.7,195.15 -46.21,433.7 5.54,635.31 124.11,483.77 552.73,893.08 836.33,1163.93" /><path
         id="path66"
         style="fill:black;fill-opacity:1;fill-rule:nonzero;stroke:none"
         d="m 7415.35,5110.34 c 48.48,596.68 -342.93,880.57 -804.07,893.24 l -7.43,0.11 c -21.57,0 -39,-3.88 -56.14,-5.2 -135.13,-10.51 -192.53,-43.72 -210.61,-43.72 l -8.16,-2.2 c -154.29,-41.34 -298.14,-170.91 -416.01,-374.7 -182.3,-315.28 -127.15,-733.86 131.1,-995.27 0.07,0.4 13.79,-12.16 15.39,-12.62 7.4,-2.18 6.34,-5.45 16.36,-15.51 35.3,-35.23 150.89,-119.79 210.8,-119.78 6.55,0 11.49,1.12 15.5,3.77 -54.7,21.91 -63.78,35.23 -101.48,60.11 -34.02,22.46 -72.35,58.83 -102.94,91.49 -39.89,42.65 -68.11,80.76 -91.52,134.07 -12.14,27.67 -28.54,60.51 -33.97,96.31 v 0 l -3.73,12.45 c -27.13,345.36 126.96,604.76 422.73,711.65 l 26.77,9.67 v 0 0 l 6.48,2.35 107.12,6.09 c 4.62,0.1 9.16,0.16 13.74,0.16 209.22,0 402.56,-111.17 530.41,-305.01 150.7,-228.45 180.08,-520.4 76.67,-761.91 -64.85,-151.42 -192.21,-286.88 -349.41,-371.66 l -100.18,-36.18 -26.44,-8.46 c -101.03,-32.34 -206.79,-48.74 -314.38,-48.74 -0.02,0 -0.02,0 -0.02,0 -57.82,0 -115.07,4.79 -171.34,13.85 34.54,-32.74 68.8,-65.21 102.62,-97.19 10.71,-0.35 21.43,-0.89 32.13,-0.89 94.38,0 171.28,12.69 252.73,26.14 35.13,5.82 -46.25,-5.57 190.03,51.98 l 58.22,26.99 c 635.71,271.73 550.16,580.1 589.03,1058.61" /><path
         id="path68"
         style="fill:black;fill-opacity:1;fill-rule:nonzero;stroke:none"
         d="m 6395.5,5554.21 -1.69,2.35 0.49,-2.35 z" /></g></g></svg>