<?xml version="1.0" standalone="no"?><!DOCTYPE svg PUBLIC "-//W3C//DTD SVG 1.1//EN" "http://www.w3.org/Graphics/SVG/1.1/DTD/svg11.dtd"><svg t="1541639814168" class="icon" style="" viewBox="0 0 1024 1024" version="1.1" xmlns="http://www.w3.org/2000/svg" p-id="1827" xmlns:xlink="http://www.w3.org/1999/xlink" width="32" height="32"><defs><style type="text/css"></style></defs><path d="M647.168 715.776c-49.664 34.816-108.032 52.224-166.912 51.712-7.68 0-15.872-0.512-23.552-1.536l-9.216-1.536c-6.144-1.024-12.288-1.536-17.92-2.56-3.584-0.512-7.168-1.536-10.752-2.56-5.632-1.536-11.776-2.56-17.408-4.096-2.56-1.024-5.12-2.048-8.192-3.072-6.656-2.048-13.312-4.096-19.456-7.168-1.536-0.512-3.072-1.024-4.096-1.536-7.168-3.584-14.848-6.656-22.016-10.752 0 0-0.512-0.512-1.024-0.512-24.064-13.312-45.568-29.184-65.024-48.64l-1.024-1.024c-6.144-6.144-11.776-12.288-16.896-18.944-1.024-1.536-2.048-2.56-3.072-4.096-38.912-48.64-62.464-110.592-62.464-177.664h75.264L153.088 302.08 33.28 481.792h74.752c0 78.848 24.576 152.064 66.56 212.48 0.512 1.024 1.024 2.048 1.536 2.56 4.096 6.144 9.216 11.776 13.824 17.92 2.048 2.048 3.072 4.096 5.12 6.656 6.656 8.192 14.336 15.872 21.504 23.552l2.048 2.048c25.088 25.088 53.76 46.08 84.48 63.488 1.024 0.512 1.536 1.024 2.56 1.536 8.704 4.608 17.92 9.216 27.136 13.312 2.56 1.024 4.608 2.048 6.656 3.072 8.192 3.584 15.872 6.144 24.576 9.216 4.096 1.536 7.68 2.56 11.776 4.096 7.168 2.048 14.336 4.096 22.016 5.632 5.12 1.024 9.728 2.56 14.848 3.584l6.144 1.536c7.168 1.536 13.824 2.048 20.992 2.56 2.56 0.512 5.12 1.024 7.68 1.024 12.8 1.024 25.088 2.048 37.376 2.048 76.288 0 150.528-23.04 214.528-68.096 20.48-14.336 25.6-42.496 11.264-62.464-15.36-21.504-43.008-26.112-63.488-11.776m211.456-233.984c0-78.848-24.576-152.064-66.048-211.968l-1.536-3.072c-5.12-7.168-10.752-14.336-16.384-21.504-0.512-1.024-1.536-1.536-2.048-2.56-38.4-46.08-86.016-81.92-140.288-105.472-1.536-0.512-3.072-1.536-4.608-2.048-8.704-3.584-17.408-6.656-26.624-9.728-3.072-1.024-6.144-2.048-9.728-3.072-7.68-2.56-15.36-4.096-23.552-6.144-4.608-1.024-8.704-2.048-13.312-3.072-2.048-0.512-4.096-1.024-6.656-1.536-6.144-1.024-11.776-1.536-17.92-2.048l-12.288-1.536c-9.728-1.024-19.968-1.536-29.696-1.536-2.048 0-3.584-0.512-5.632-0.512H481.28c-76.288 0-150.528 23.04-214.016 67.584-20.48 14.336-25.6 42.496-11.264 62.976s42.496 25.088 62.976 10.752c49.152-34.304 106.496-51.712 165.888-51.2 8.192 0 16.896 0.512 25.088 1.536 2.56 0 5.12 0.512 7.68 1.024 6.656 1.024 13.312 1.536 19.968 3.072 3.072 0.512 5.632 1.536 8.704 2.048 6.656 1.536 12.8 3.072 19.456 5.12 2.048 0.512 4.096 1.536 6.144 2.048l21.504 7.68c0.512 0 1.536 0.512 2.048 1.024 41.984 17.92 78.848 45.568 107.52 80.896 0 0 0 0.512 0.512 0.512 40.448 49.152 65.024 112.128 65.024 180.736h-75.264l120.32 180.224 119.808-180.224h-74.752z" fill="#2c2c2c" p-id="1828"></path></svg>