<?xml version="1.0" standalone="no"?><!DOCTYPE svg PUBLIC "-//W3C//DTD SVG 1.1//EN" "http://www.w3.org/Graphics/SVG/1.1/DTD/svg11.dtd"><svg t="1540695986042" class="icon" style="" viewBox="0 0 1024 1024" version="1.1" xmlns="http://www.w3.org/2000/svg" p-id="1107" xmlns:xlink="http://www.w3.org/1999/xlink" width="32" height="32"><defs><style type="text/css"></style></defs><path d="M260.271 307.556c140.717 72.074 260.839 66.925 260.839 66.925s-44.617-157.876 94.384-228.234c138.998-70.359 236.816 48.048 236.816 48.048s24.025-6.863 42.901-13.728 44.617-18.876 44.617-18.876l-42.901 77.222 66.925-6.863s-8.579 12.014-34.319 36.038c-25.741 24.025-37.754 37.754-37.754 37.754s10.297 190.483-90.95 338.062c-99.53 147.58-229.952 235.099-417.002 253.973-187.050 18.876-310.606-58.347-310.606-58.347s82.37-5.149 133.852-24.025c51.483-20.592 126.99-73.79 126.99-73.79s-106.397-32.605-145.866-70.359-48.048-60.062-48.048-60.062l106.397-1.716s-111.542-60.062-142.433-106.397c-30.89-46.333-36.038-92.666-36.038-92.666l80.656 32.605s-66.925-92.666-77.222-163.025c-10.297-72.074 12.014-109.826 12.014-109.826s36.038 65.21 176.752 137.283z" fill="#D3D3D3" p-id="1108"></path></svg>