<?xml version="1.0" standalone="no"?><!DOCTYPE svg PUBLIC "-//W3C//DTD SVG 1.1//EN" "http://www.w3.org/Graphics/SVG/1.1/DTD/svg11.dtd"><svg t="1540696183701" class="icon" style="" viewBox="0 0 1024 1024" version="1.1" xmlns="http://www.w3.org/2000/svg" p-id="2029" xmlns:xlink="http://www.w3.org/1999/xlink" width="32" height="32"><defs><style type="text/css"></style></defs><path d="M805.636 489.376c-41.413-22.241-71.065-13.027-60.221-37.168 5.84-12.997 14.205-30.224 14.292-55.047 0.064-17.206-2.703-35.22-25.977-55.078-29.027-24.773-73.403-18.65-113.671-4.94-61.834 21.049-77.766 26.697-83.392 22.63-7.003-5.059 0.22-12.469 3.876-18.569 12.875-19.484 40.22-114.771-71.697-114.771-65.337 0-158.881 44.185-260.444 151.665-126.303 133.66-109.498 271.604-109.498 271.604h0.206c2.896 67.87 39.947 134.070 96.593 163.843 0 0 96.804 66.265 291.242 49.5 139.319-12.017 255.421-73.659 333.029-148.74 36.672-36.678 49.965-77.066 49.965-113.83 0-50.55-22.894-88.851-64.302-111.099v0zM397.199 441.444c138.953-30.721 269.147 21.472 290.795 116.567 21.653 95.097-73.442 197.090-212.396 227.806-138.946 30.721-269.139-21.472-290.788-116.567-21.647-95.097 73.442-197.090 212.389-227.806v0zM397.199 441.444z" p-id="2030" fill="#777777"></path><path d="M383.887 511.908c-74.179 20.901-119.783 87.932-101.857 149.707 17.92 61.78 92.583 94.91 166.758 74.006 74.178-20.901 119.781-87.932 101.861-149.707-17.924-61.78-92.588-94.914-166.763-74.006v0zM369.571 692.273c-24.367-3.5-41.279-26.084-37.786-50.447 3.499-24.367 26.084-41.279 50.446-37.786 24.368 3.5 41.285 26.084 37.786 50.447-3.499 24.367-26.083 41.28-50.446 37.786v0zM459.583 620.557c-11.874-1.703-20.122-12.713-18.415-24.587 1.703-11.876 12.713-20.123 24.589-18.419 11.874 1.707 20.122 12.713 18.415 24.592-1.703 11.874-12.708 20.121-24.589 18.414v0zM459.583 620.557z" p-id="2031" fill="#777777"></path><path d="M718.503 218.686c-0.116 0-0.236-0.018-0.353-0.018-17.762 0-33.026 14.404-33.026 32.173 0 17.762 14.851 32.167 31.305 32.167v0.004c56.559 0 98.221 40.716 98.221 93.164h0.011c0 16.452 14.401 33.837 32.17 33.837 17.766 0 32.167-13.568 32.167-31.334 0-0.116-0.015 0.188-0.015 0.064-0.191-88.544-71.932-159.863-160.478-160.055v0zM718.503 218.686z" p-id="2032" fill="#777777"></path><path d="M710.108 98.034c-17.767 0-32.17 14.401-32.17 32.17 0 17.766 14.401 32.167 32.17 32.167 124.167 0 225.182 101.019 225.182 225.183 0 17.766 14.401 32.167 32.169 32.167 17.766 0 32.169-14.401 32.169-32.167 0-159.894-129.62-289.519-289.518-289.519v0zM710.108 98.034z" p-id="2033" fill="#777777"></path></svg>